<svg xmlns="http://www.w3.org/2000/svg" viewBox="0 0 326 326"><defs><style>.cls-1{fill:none;}.cls-2{fill:#06326b;}.cls-3{fill:#d98918;}.cls-4{fill:#c12a21;}</style></defs><title>Recurso 2</title><g id="Capa_2" data-name="Capa 2"><g id="Capa_1-2" data-name="Capa 1"><rect class="cls-1" width="326" height="326"/><path class="cls-2" d="M124.78,143.39l.1-85a110.08,110.08,0,0,0-49,32.71V214s-2.61,20.13,19.35,39.87c12.54,11.28,41.5,18.13,53.4,18.87h0c3.35.24,6.87.37,10.56.37V228.74s-26.7,1.32-32.35-17.59a48.55,48.55,0,0,1-2.12-15.27V182.3h34.47V143.39h-34.4Z"/><path class="cls-3" d="M268.68,174.14H224a66,66,0,0,1-42.5,50.71v46A110.11,110.11,0,0,0,268.68,174.14Z"/><path class="cls-4" d="M159.18,97.26A65.83,65.83,0,0,1,224,151.86h44.72A109.93,109.93,0,0,0,147.09,53.62V98.39A66.07,66.07,0,0,1,159.18,97.26Z"/></g></g></svg>